<?xml version="1.0" standalone="no"?><!DOCTYPE svg PUBLIC "-//W3C//DTD SVG 1.1//EN" "http://www.w3.org/Graphics/SVG/1.1/DTD/svg11.dtd"><svg t="1575524791792" class="icon" viewBox="0 0 1024 1024" version="1.1" xmlns="http://www.w3.org/2000/svg" p-id="3066" xmlns:xlink="http://www.w3.org/1999/xlink" width="128" height="128"><defs><style type="text/css"></style></defs><path d="M199.1424 896.9344H96.72704c-24.7424 0-44.8-20.0576-44.8-44.8V440.64896c0-117.86752 95.89248-213.76 213.76-213.76h69.09568c24.7424 0 44.8 20.0576 44.8 44.8s-20.0576 44.8-44.8 44.8h-69.09568c-68.46208 0-124.16 55.69792-124.16 124.16V807.3344h57.61536c24.7424 0 44.8 20.0576 44.8 44.8s-20.0576 44.8-44.8 44.8z" fill="#40c9c6" p-id="3067"></path><path d="M277.536 971.82848c-67.94624 0-123.22432-55.27936-123.22432-123.2256s55.27808-123.22432 123.22432-123.22432c67.94624 0 123.22432 55.27808 123.22432 123.22432s-55.27808 123.2256-123.22432 123.2256z m0-156.84864c-18.5408 0-33.62432 15.08352-33.62432 33.62432 0 18.5408 15.08352 33.6256 33.62432 33.6256 18.53952 0 33.62432-15.08352 33.62432-33.6256 0-18.5408-15.08352-33.62432-33.62432-33.62432z" fill="#40c9c6" p-id="3068"></path><path d="M465.85856 896.9344h-104.31872c-24.7424 0-44.8-20.0576-44.8-44.8s20.0576-44.8 44.8-44.8h59.51872V152.0128c0-55.05152 44.78848-99.84 99.84-99.84h406.37312c24.7424 0 44.8 20.0576 44.8 44.8s-20.0576 44.8-44.8 44.8H520.89856c-5.55136 0-10.24 4.68992-10.24 10.24v700.1216c0 24.74368-20.0576 44.8-44.8 44.8z" fill="#40c9c6" p-id="3069"></path><path d="M771.7248 274.88256H569.8048c-24.7424 0-44.8-20.0576-44.8-44.8s20.0576-44.8 44.8-44.8h201.92c24.7424 0 44.8 20.0576 44.8 44.8s-20.0576 44.8-44.8 44.8z" fill="#40c9c6" p-id="3070"></path><path d="M706.336 415.68256H569.8048c-24.7424 0-44.8-20.0576-44.8-44.8s20.0576-44.8 44.8-44.8h136.5312c24.7424 0 44.8 20.0576 44.8 44.8s-20.0576 44.8-44.8 44.8z" fill="#40c9c6" p-id="3071"></path><path d="M696.288 775.584c-10.64576 0-21.2928-4.06144-29.4144-12.18432l-122.87488-122.8736c-16.24576-16.24576-16.24576-42.58688-0.00128-58.83136 16.24704-16.24704 42.58688-16.24576 58.83136-0.00128l122.87488 122.8736c16.24576 16.24576 16.24576 42.58688 0.00128 58.83136-8.12544 8.12416-18.7712 12.1856-29.41696 12.1856z" fill="#40c9c6" p-id="3072"></path><path d="M696.288 775.584c-10.64576 0-21.2928-4.06144-29.4144-12.1856-16.24576-16.24448-16.24576-42.5856 0-58.83008l230.98624-230.98624c16.24448-16.24576 42.5856-16.24576 58.83008 0 16.24576 16.24576 16.24576 42.5856 0 58.83136L725.70368 763.3984c-8.12416 8.12416-18.76992 12.1856-29.41568 12.1856z" fill="#40c9c6" p-id="3073"></path></svg>