<?xml version="1.0" standalone="no"?><!DOCTYPE svg PUBLIC "-//W3C//DTD SVG 1.1//EN" "http://www.w3.org/Graphics/SVG/1.1/DTD/svg11.dtd"><svg t="1575524697265" class="icon" viewBox="0 0 1024 1024" version="1.1" xmlns="http://www.w3.org/2000/svg" p-id="2525" xmlns:xlink="http://www.w3.org/1999/xlink" width="128" height="128"><defs><style type="text/css"></style></defs><path d="M947.6 166.4c6.5 0 12 5.5 12 12v421.5c0 6.5-5.5 12-12 12H443.7c-6.5 0-12-5.5-12-12V178.4c0-6.5 5.5-12 12-12H947.6m0-64H443.7c-41.8 0-75.9 34.2-75.9 75.9v421.5c0 41.8 34.2 75.9 75.9 75.9H947.6c41.8 0 75.9-34.2 75.9-75.9V178.4c0-41.8-34.2-76-75.9-76zM331.2 781.8c21 0 38 17 38 38s-17 38-38 38-38-17-38-38 17-38 38-38m0-64c-56.3 0-101.9 45.7-101.9 101.9 0 56.3 45.7 101.9 101.9 101.9S433.1 876 433.1 819.8c0-56.3-45.7-102-101.9-102z m475.6 64c21 0 38 17 38 38s-17 38-38 38-38-17-38-38 17-38 38-38m0-64c-56.3 0-101.9 45.7-101.9 101.9 0 56.3 45.7 101.9 101.9 101.9 56.3 0 101.9-45.7 101.9-101.9s-45.7-101.9-101.9-101.9zM286.5 379.5c-17.7 0-32 14.3-32 32v147.9h63.9V411.5c0.1-17.7-14.2-32-31.9-32z" fill="#40c9c6" p-id="2526"></path><path d="M806.8 922.2c-56.5 0-102.4-45.9-102.4-102.4s45.9-102.4 102.4-102.4c56.5 0 102.4 45.9 102.4 102.4s-45.9 102.4-102.4 102.4z m0-203.9c-55.9 0-101.4 45.5-101.4 101.4s45.5 101.4 101.4 101.4 101.4-45.5 101.4-101.4-45.5-101.4-101.4-101.4zM331.2 922.2c-56.5 0-102.4-45.9-102.4-102.4s45.9-102.4 102.4-102.4S433.6 763.3 433.6 819.8s-45.9 102.4-102.4 102.4z m0-203.9c-55.9 0-101.4 45.5-101.4 101.4s45.5 101.4 101.4 101.4S432.6 875.7 432.6 819.8s-45.5-101.5-101.4-101.5z m475.6 140c-21.2 0-38.5-17.3-38.5-38.5s17.3-38.5 38.5-38.5 38.5 17.3 38.5 38.5c0 21.3-17.3 38.5-38.5 38.5z m0-76c-20.7 0-37.5 16.8-37.5 37.5s16.8 37.5 37.5 37.5 37.5-16.8 37.5-37.5-16.8-37.5-37.5-37.5z m-475.6 76c-21.2 0-38.5-17.3-38.5-38.5s17.3-38.5 38.5-38.5 38.5 17.3 38.5 38.5c0 21.3-17.3 38.5-38.5 38.5z m0-76c-20.7 0-37.5 16.8-37.5 37.5s16.8 37.5 37.5 37.5 37.5-16.8 37.5-37.5-16.8-37.5-37.5-37.5zM947.6 676.2H443.7c-42.1 0-76.4-34.3-76.4-76.4V178.3c0-42.1 34.3-76.4 76.4-76.4H947.6c42.1 0 76.4 34.3 76.4 76.5v421.4c0 42.1-34.3 76.4-76.4 76.4zM443.7 102.9c-41.6 0-75.4 33.8-75.4 75.4v421.5c0 41.6 33.8 75.4 75.4 75.4H947.6c41.6 0 75.4-33.8 75.4-75.4V178.4c0-41.6-33.8-75.5-75.4-75.5H443.7zM947.6 612.3H443.7c-6.8 0-12.5-5.7-12.5-12.5V178.4c0-6.8 5.7-12.5 12.5-12.5H947.6c6.8 0 12.5 5.7 12.5 12.5v421.5c0 6.7-5.7 12.4-12.5 12.4zM443.7 166.9c-6.2 0-11.5 5.3-11.5 11.5v421.5c0 6.2 5.3 11.5 11.5 11.5H947.6c6.2 0 11.5-5.3 11.5-11.5V178.4c0-6.2-5.3-11.5-11.5-11.5H443.7zM318.9 559.8h-64.9V411.5c0-17.9 14.6-32.5 32.5-32.5 8.7 0 16.9 3.4 23 9.5 6.1 6.1 9.4 14.3 9.4 23v148.3z m-63.9-1h62.9V411.5c0-8.4-3.2-16.3-9.1-22.2-5.9-6-13.9-9.3-22.3-9.3-17.4 0-31.5 14.1-31.5 31.5v147.3z" fill="#40c9c6" p-id="2527"></path><path d="M318.5 496.5H192.3c-17.7 0-32 14.3-32 32s14.3 32 32 32h126.2v-64zM152.3 608.3H0.5v63.9h151.9c17.7 0 32-14.3 32-32-0.1-17.7-14.5-31.9-32.1-31.9z" fill="#40c9c6" p-id="2528"></path><path d="M152.4 672.7H0v-64.9h152.3c17.9 0 32.5 14.5 32.6 32.4 0 17.9-14.6 32.5-32.5 32.5z m-151.4-1h151.4c17.4 0 31.5-14.1 31.5-31.5-0.1-17.3-14.3-31.4-31.6-31.4H1v62.9z m318-110.7H192.3c-17.9 0-32.5-14.6-32.5-32.5s14.6-32.5 32.5-32.5h126.7v65z m-126.7-64c-17.4 0-31.5 14.1-31.5 31.5s14.1 31.5 31.5 31.5h125.7v-63H192.3z" fill="#40c9c6" p-id="2529"></path><path d="M64.4 640H0.5V505.4C0.5 459.2 45 392.3 86.6 345c25-28.4 51.5-52.7 76.5-70 31.6-22 60.7-33.2 86.4-33.2h118.3v63.9H249.4c-21.5 0-65.3 25.2-114.9 81.5C86.6 441.6 64.4 489.8 64.4 505.3V640z" fill="#40c9c6" p-id="2530"></path><path d="M64.9 640.5H0V505.4c0-46.2 44.5-113.3 86.2-160.7 25.2-28.6 51.7-52.8 76.6-70.1 31.7-22.1 60.9-33.3 86.7-33.3h118.8v64.9H249.4c-21.3 0-65 25.1-114.5 81.3-47.7 54.2-70 102.3-70 117.8v135.2z m-63.9-1h62.9V505.3c0-15.6 22.3-64 70.2-118.4 49.7-56.4 93.7-81.7 115.3-81.7h117.9v-62.9H249.5c-25.6 0-54.6 11.1-86.1 33.1-24.9 17.2-51.3 41.4-76.4 69.9C45.4 392.6 1 459.4 1 505.4v134.1z" fill="#40c9c6" p-id="2531"></path></svg>