<?xml version="1.0" standalone="no"?><!DOCTYPE svg PUBLIC "-//W3C//DTD SVG 1.1//EN" "http://www.w3.org/Graphics/SVG/1.1/DTD/svg11.dtd"><svg t="1575524590245" class="icon" viewBox="0 0 1024 1024" version="1.1" xmlns="http://www.w3.org/2000/svg" p-id="2061" xmlns:xlink="http://www.w3.org/1999/xlink" width="128" height="128"><defs><style type="text/css"></style></defs><path d="M872 448v288A72 72 0 0 1 800 808H224A72 72 0 0 1 152 736v-288h-48v288A120 120 0 0 0 224 856h576A120 120 0 0 0 920 736v-288h-48z" fill="#40c9c6" p-id="2062"></path><path d="M440 472v-48h432V288A72 72 0 0 0 800 216H224A72 72 0 0 0 152 288v136h112v48h-160V288A120 120 0 0 1 224 168h576A120 120 0 0 1 920 288v184h-480z" fill="#40c9c6" p-id="2063"></path><path d="M352 561.088l-88 120.416V168h176v513.504L352 561.088zM312 216v318.496L352 479.744l40 54.72V216h-80z" fill="#40c9c6" p-id="2064"></path></svg>