<?xml version="1.0" standalone="no"?><!DOCTYPE svg PUBLIC "-//W3C//DTD SVG 1.1//EN" "http://www.w3.org/Graphics/SVG/1.1/DTD/svg11.dtd"><svg t="1561626090683" class="icon" viewBox="0 0 1024 1024" version="1.1" xmlns="http://www.w3.org/2000/svg" p-id="1379" xmlns:xlink="http://www.w3.org/1999/xlink" width="200" height="200"><defs><style type="text/css"></style></defs><path d="M970.14244 93.585h-49.703763a123.925827 123.925827 0 0 1 0 60.651328h49.749252c15.784508 0 28.566776-13.570735 28.566776-30.325664s-12.827756-30.325664-28.612265-30.325664zM680.456533 93.585H53.731195c-15.769345 0-28.551613 13.646549-28.551613 30.325664s12.782267 30.325664 28.551613 30.325664h626.770827a123.925827 123.925827 0 0 1 0-60.651328zM800.440024 53.069912a70.764937 70.764937 0 0 1 63.865848 40.515088h56.102479a123.743873 123.743873 0 0 0-239.982143 0h56.102479A70.749775 70.749775 0 0 1 800.440024 53.069912zM800.440024 194.417833a70.764937 70.764937 0 0 1-63.774872-40.181505h-56.102479a123.743873 123.743873 0 0 0 239.891167 0h-56.238945a70.749775 70.749775 0 0 1-63.774871 40.181505z" p-id="1380"></path><path d="M920.438677 93.585h-56.102479a70.522332 70.522332 0 0 1-0.090977 60.651328h56.178293a123.925827 123.925827 0 0 0 0-60.651328zM729.781226 123.743873a70.143261 70.143261 0 0 1 6.808112-30.158873h-56.102479a123.925827 123.925827 0 0 0 0 60.651328h56.102479a70.249401 70.249401 0 0 1-6.808112-30.492455z" p-id="1381"></path><path d="M680.486859 869.922002H53.731195c-15.769345 0-28.551613 13.646549-28.551613 30.325665s12.782267 30.325664 28.551613 30.325664h626.755664a123.683221 123.683221 0 0 1 0-60.651329zM970.14244 869.922002h-49.734089a123.683221 123.683221 0 0 1 0 60.651329h49.734089c15.784508 0 28.566776-13.646549 28.566776-30.325664s-12.782267-30.325664-28.566776-30.325665zM800.440024 829.54338a70.734612 70.734612 0 0 1 63.82036 40.378622h56.102479a123.743873 123.743873 0 0 0-239.921492 0h56.102478a70.704286 70.704286 0 0 1 63.896175-40.378622z" p-id="1382"></path><path d="M800.440024 970.876138a70.719449 70.719449 0 0 1-63.805198-40.302807h-56.102478a123.72871 123.72871 0 0 0 239.921492 0h-56.102479a70.749775 70.749775 0 0 1-63.911337 40.302807z" p-id="1383"></path><path d="M729.781226 900.247667a70.143261 70.143261 0 0 1 6.8536-30.325665h-56.102478a123.683221 123.683221 0 0 0 0 60.651329h56.102478a70.052284 70.052284 0 0 1-6.8536-30.325664zM920.408351 869.922002h-56.102479a70.522332 70.522332 0 0 1 0 60.651329h56.102479a123.683221 123.683221 0 0 0 0-60.651329z" p-id="1384"></path><path d="M122.44915 481.950618H53.731195c-15.769345 0-28.551613 13.570735-28.551613 30.325664s12.782267 30.325664 28.551613 30.325664H121.615194a123.334476 123.334476 0 0 1 0.833956-60.651328zM970.14244 481.950618H361.491198a123.334476 123.334476 0 0 1 0.833955 60.651328h607.817287c15.784508 0 28.566776-13.646549 28.566776-30.325664s-12.782267-30.325664-28.566776-30.325664zM241.94743 584.602991a70.749775 70.749775 0 0 1-64.563339-42.001045H121.615194a123.713547 123.713547 0 0 0 240.709959 0h-55.784059a70.764937 70.764937 0 0 1-64.593664 42.001045zM241.94743 443.270233a70.704286 70.704286 0 0 1 62.986404 38.680385h56.542201a123.72871 123.72871 0 0 0-239.042048 0h56.542201a70.704286 70.704286 0 0 1 62.971242-38.680385z" p-id="1385"></path><path d="M171.303795 513.929031a70.037121 70.037121 0 0 1 7.687556-31.978413H122.44915a123.334476 123.334476 0 0 0-0.833956 60.651328h55.784059a70.173587 70.173587 0 0 1-6.095458-28.672915zM361.491198 481.950618h-56.542201a70.416192 70.416192 0 0 1 1.592097 60.651328h55.784059a123.334476 123.334476 0 0 0-0.833955-60.651328z" p-id="1386"></path></svg>