<?xml version="1.0" standalone="no"?><!DOCTYPE svg PUBLIC "-//W3C//DTD SVG 1.1//EN" "http://www.w3.org/Graphics/SVG/1.1/DTD/svg11.dtd"><svg t="1561626097149" class="icon" viewBox="0 0 1024 1024" version="1.1" xmlns="http://www.w3.org/2000/svg" p-id="1502" xmlns:xlink="http://www.w3.org/1999/xlink" width="200" height="200"><defs><style type="text/css"></style></defs><path d="M512 112.8a86.88 86.88 0 0 1 63.04 26.88l313.76 327.04c23.2 24.48 25.28 47.04 19.68 59.36a39.36 39.36 0 0 1-37.28 23.2h-64V816c0 52.96-37.92 96-84.48 96H300c-46.56 0-84.48-43.2-84.48-96V550.56l-46.88-1.12H151.2a40 40 0 0 1-36.8-23.36c-5.28-11.84-3.36-34.4 20-58.72L448 139.84a86.88 86.88 0 0 1 64-27.04m0-48a135.04 135.04 0 0 0-97.6 41.76L99.84 433.6c-39.84 41.44-41.12 84.96-29.28 112a87.52 87.52 0 0 0 78.08 51.68h18.88V816c0 80 59.36 144 132.48 144h423.04c73.12 0 132.48-64 132.48-144V597.44H874.08a86.72 86.72 0 0 0 78.4-51.84c12-26.72 10.56-70.24-29.12-112L609.12 106.56A134.24 134.24 0 0 0 512 64.8z" fill="#B8B8B8" p-id="1503"></path><path d="M512 352a160 160 0 1 1-160 160 160 160 0 0 1 160-160z m0-32a192 192 0 1 0 192 192 192 192 0 0 0-192-192z" fill="#B8B8B8" p-id="1504"></path><path d="M632.16 524.16l-89.6 89.6A16 16 0 0 1 519.84 592l63.2-64H403.2a16 16 0 0 1 0-32h178.88l-62.24-64a16 16 0 0 1 22.72-22.4l89.76 91.36a16 16 0 0 1-0.16 23.2z" fill="#B8B8B8" p-id="1505"></path></svg>